<?xml version="1.0" encoding="utf-8"?>
<!-- Generator: Adobe Illustrator 24.0.0, SVG Export Plug-In . SVG Version: 6.00 Build 0)  -->
<svg version="1.1" id="Layer_1" xmlns="http://www.w3.org/2000/svg" xmlns:xlink="http://www.w3.org/1999/xlink" x="0px" y="0px"
	 viewBox="0 0 648 648" style="enable-background:new 0 0 648 648;" xml:space="preserve">
<style type="text/css">
	.st0{fill:#F2F2F2;}
	.st1{fill:#3F3D56;}
	.st2{fill:#D0CDE1;}
	.st3{fill:#FFFFFF;}
	.st4{fill:#0FC150;}
</style>
<path class="st0" d="M648,324c0,21.2-2.1,42.4-6.2,63.2c-1.3,6.4-2.7,12.8-4.4,19c-3.2,12.3-7.2,24.5-11.8,36.3
	c-0.6,1.6-1.3,3.2-2,4.8c-1.6,4-3.4,8-5.2,11.9c-1,2.1-1.9,4.2-3,6.3c-3.8,7.9-7.9,15.5-12.4,23c-5,8.5-10.4,16.8-16.2,24.8
	c-104.8,145.2-307.4,178-452.6,73.2c-44.3-32-79.8-74.7-103.3-124c-1.4-3-2.8-5.9-4.1-9c-0.2-0.4-0.3-0.7-0.5-1.1
	c-2-4.6-3.9-9.3-5.7-14.1c-1.6-4.2-3.1-8.5-4.5-12.9c-2.1-6.4-4-12.8-5.7-19.3c-1.4-5.3-2.6-10.6-3.7-15.9
	c-4.1-19.7-6.4-39.8-6.7-60c0-2.1-0.1-4.2-0.1-6.3c0-9.5,0.4-18.8,1.2-28.1c0.3-3.2,0.6-6.4,1-9.6c4-34.6,13.6-68.2,28.3-99.7
	c3.7-7.9,7.8-15.7,12.1-23.3c16-28,36.1-53.4,59.6-75.4c3.3-3.1,6.6-6.1,10-9C171,27.9,246.2-0.1,324,0C502.9,0,648,145.1,648,324z"
	/>
<rect x="477.4" y="233" class="st1" width="12.1" height="86"/>
<path class="st1" d="M489.5,232l-0.4,1.1l-4.1,10.1l-7.6-3.1l-10.9-4.4c-67.7-21.7-153.2-32.8-185.7-75.4l-2.1-0.9
	c-13.6,11.3-23.1,12-23.8-9.7l-2.1-0.9c-55.6,11.4-103.7-21.2-150.5-61.1c3.3-3.1,6.6-6.1,10-9c65.8,1.8,122,13.3,144,58.4l2.1,0.9
	l25.6,10.4l2.1,0.9c56.8-12,120.7,31.2,184.6,74.9L489.5,232z"/>
<path class="st2" d="M586.9,513.4c-10.3,14.3-21.8,27.8-34.3,40.2c-144.1,2.8-317.6,2.5-458-0.8c-12.1-12.1-23.2-25.2-33.3-39.1
	c29.1-0.8,60.1-1.5,92.2-2c12.7-0.2,25.6-0.4,38.6-0.5c13-0.1,26-0.3,39.2-0.4h0C351.3,509.9,479.5,510.8,586.9,513.4z"/>
<path class="st1" d="M637.5,406.2c-3.2,12.3-7.2,24.5-11.8,36.3c-0.6,1.6-1.3,3.2-2,4.8h-15.5v-41.2H637.5z"/>
<path class="st1" d="M625.6,442.6c-0.6,1.6-1.3,3.2-2,4.8c-1.6,4-3.4,8-5.2,11.9c-1,2.1-1.9,4.2-3,6.3c-3.8,7.9-7.9,15.5-12.4,23
	c-154.8,18-298,22.4-418.8,0v-46H625.6z"/>
<path class="st2" d="M618.5,387.8v71.5c-1,2.1-1.9,4.2-3,6.3c-44-21.5-84.1-18.9-121.8,0V308.7c30.5-18.2,61.4-21.2,93.3,0
	l29.2,73.4L618.5,387.8z"/>
<path class="st3" d="M513.1,318.4h53.3v53.3c-17.6,9.4-35.3,9.2-53.3,0C503.9,354,503.9,336.2,513.1,318.4z"/>
<path class="st3" d="M606.4,372.3c-7,7.9-19.8,5.1-33.9,0V319H587L606.4,372.3z"/>
<rect x="515.5" y="402" class="st1" width="12.1" height="23"/>
<path class="st1" d="M582.8,352.9h0.6c6.4,0,11.5,5.2,11.5,11.5c0,0,0,0,0,0l0,0l0,0c0,6.4-5.2,11.5-11.5,11.5c0,0,0,0,0,0h-0.6
	L582.8,352.9L582.8,352.9z"/>
<path class="st1" d="M132.2,442.6h0.6c6.4,0,11.5,5.2,11.5,11.5l0,0l0,0c0,6.4-5.2,11.5-11.5,11.5c0,0,0,0,0,0h-0.6V442.6z"/>
<path class="st2" d="M641.8,387.2c-1.3,6.4-2.7,12.8-4.4,19c-3.2,12.3-7.2,24.5-11.8,36.3c-0.6,1.6-1.3,3.2-2,4.8
	c-1.6,4-3.4,8-5.2,11.9c-1,2.1-1.9,4.2-3,6.3H610l-0.6-18.2l-0.2-4.8l-1-28.2l-1.2-34l9.3,1.8L641.8,387.2z"/>
<circle class="st1" cx="192.2" cy="486.8" r="46"/>
<circle class="st2" cx="192.2" cy="486.8" r="24.2"/>
<path class="st1" d="M497.4,437.1L497.4,437.1l0-150.2h-25.4c-5,9.5-7.6,24-8.5,41.7c-3.1,60.7-52.8,108.4-113.5,108.4H131.6V448
	h338.1c0.7,7.5,1.4,14.9,2.2,22.4l25.4,0V448h0V437.1z"/>
<path class="st1" d="M337.6,379.1l-26.7,7.3l-8.8,2.4c-52.7,26.8-109.3,43.3-171,46.5c-23.7,17.9-58.4,25.8-100.1,27.2
	c-1.4-3-2.8-5.9-4.1-9c-0.2-0.4-0.3-0.7-0.5-1.1l3.7-1L172,412.9c0,0,0,0,0,0c0,0,0,0,0,0l16.2-4.4h0l146.5-39.9L337.6,379.1z"/>
<path class="st1" d="M300.7,386.8l6.8-5l42,57.1l-6.8,5C311.2,440,297.3,420.9,300.7,386.8z"/>
<path class="st1" d="M370.6,193.8l7.7,3.4L303.6,383l-7.7-3.4C306.2,311.9,329.1,249.2,370.6,193.8z"/>
<rect x="577.9" y="374.7" class="st1" width="12.1" height="4.8"/>
<path class="st1" d="M481.2,303.6c0-0.1,0-0.2,0-0.3c-0.1-0.7-0.7-1.1-1.3-1.1c0,0,0,0,0,0l-7.8,0.9l-274.2,9.9l-2.4,0.3
	c-0.7,0.1-1.1,0.7-1.1,1.3c0.1,0.5,0.5,1,1,1.1l280,34.9c0.7,0.1,1.3-0.4,1.3-1.1c0,0,0,0,0,0L481.2,303.6z M204,314.8l267.6-9.2
	l7-0.8l-4.3,43.1L204,314.8z"/>
<path class="st1" d="M283.9,148.5l-5.3,10.9l-71.4,148.1l47.6-157.7l3.5-11.6l-2.1-0.9l-3.5,11.6l-49.1,163.8l-0.5,2.4
	c-0.1,0.5,0.1,1.1,0.6,1.3c0.6,0.3,1.3,0.1,1.6-0.4c0,0,0,0,0,0l75.4-155.7l5.3-10.9L283.9,148.5z"/>
<path class="st1" d="M50.8,316.1L47.3,283l-1-9.1l-5-46.9l-3-28.5c-0.1-0.7-0.7-1.1-1.3-1.1c-0.6,0.1-1,0.5-1.1,1.1L32.7,227
	l-6,52.4l-1.1,9.7l-3.2,28l-4.5,39c0,0,0,0.1,0,0.1c0,0.7,0.5,1.2,1.2,1.2l14.6,0.1l20.2,0.2h0c0,0,0.1,0,0.1,0
	c0.7-0.1,1.1-0.7,1.1-1.3c0,0,0,0,0,0L50.8,316.1z M38.8,355.2l-5.8,0l-12.6-0.1l3.6-31.8v0l4-34.9l1.1-9.7l5.9-51.7l2-17.3
	l1.8,17.3l5,47.5l1,9.1l3.5,33.1l4.1,38.6L38.8,355.2z"/>
<path class="st4" d="M230,364l-6.5,3.6l-18.6,5.2l-15.6,4.4l-33.9,9.5l-15.6,4.4c-48.5-8-73.1,8.8-96.2,26.9l-15.6,4.4l-11.6,3.3
	c-2.1-6.4-4-12.8-5.7-19.3c-1.4-5.3-2.6-10.6-3.7-15.9c-4.1-19.7-6.4-39.8-6.7-60C0,328.2,0,326.1,0,324c0-9.5,0.4-18.8,1.2-28.1
	c0.3-3.2,0.6-6.4,1-9.6l24.5-6.9l2.5-0.7l14.8-4.1l2.4-0.7l37.5-10.5c28.8-2,50.8,10.5,69.5,29.9c0,0,26.6-8,46.2,6.1
	c6.2,4.5,11.7,11.1,15.4,20.9l3.2,9.3L230,364z"/>
<circle class="st1" cx="171.5" cy="378.9" r="34"/>
<circle class="st2" cx="171.5" cy="378.9" r="17.9"/>
<path class="st1" d="M44.1,424.1c0,12.2-6.5,23.4-17.1,29.5c-0.2-0.4-0.3-0.7-0.5-1.1c-2-4.6-3.9-9.3-5.7-14.1
	c-1.6-4.2-3.1-8.5-4.5-12.9c-2.1-6.4-4-12.8-5.7-19.3c-1.4-5.3-2.6-10.6-3.7-15.9c1.1-0.1,2.2-0.2,3.3-0.2
	C28.8,390.1,44,405.3,44.1,424.1C44.1,424.1,44.1,424.1,44.1,424.1L44.1,424.1z"/>
<path class="st2" d="M28,424.1c0,5.6-2.7,10.9-7.2,14.3c-1.6-4.2-3.1-8.5-4.5-12.9c-2.1-6.4-4-12.8-5.7-19.3
	C20.2,406.5,28,414.4,28,424.1z"/>
<path class="st3" d="M129.3,294.2L24.2,323.6l-8.9-31.6c13.2-10.3,39.3-14.9,67-18.8L129.3,294.2z"/>
<path class="st3" d="M11.3,327.2l-11.2,3.1C0,328.2,0,326.1,0,324c0-9.5,0.4-18.8,1.2-28.1l1.2-0.4
	C13.4,302.7,16.2,313.4,11.3,327.2z"/>
<rect x="32.1" y="346.2" transform="matrix(0.963 -0.2695 0.2695 0.963 -93.4588 22.4104)" class="st1" width="5.6" height="10.6"/>
<path class="st1" d="M218.1,329.5c-9.2,3.7-19.7-0.8-23.4-10c-2.8-7-0.9-15.1,4.8-20.1c6.2,4.4,11.7,11.1,15.4,20.9L218.1,329.5z"/>
<path class="st1" d="M30.5,186.6c3.7-7.9,7.8-15.7,12.1-23.3V227H30.5V186.6z"/>
<circle class="st1" cx="483.4" cy="235.5" r="17"/>
</svg>
